# xmcd
#
# Track frame offsets:
#	150
#	20082
#	39450
#	63350
#	82872
#	105200
#	127532
#	143647
#	165337
#	183022
#	203460
#
# Disc length: 3003 seconds
#
# Revision: 2
# Processed by: cddbd v1.5.2PL0 Copyright (c) Steve Scherf et al.
# Submitted via: audiograbber 1.83.01
#
DISCID=710bb90b
DTITLE=Paul Young - No Parlez
DYEAR=1983
DGENRE=Alternative Rock
TTITLE0=Come Back And Stay
TTITLE1=Love Will Tear Us Apart
TTITLE2=Wherever I Lay My Hat (That's My Home)
TTITLE3=Ku-Ku Kurama
TTITLE4=No Parlez
TTITLE5=Love Of The Common People
TTITLE6=Oh Women
TTITLE7=Iron Out The Rough Spots
TTITLE8=Broken Man
TTITLE9=Tender Trap
TTITLE10=Sex
EXTD=
EXTT0=
EXTT1=
EXTT2=
EXTT3=
EXTT4=
EXTT5=
EXTT6=
EXTT7=
EXTT8=
EXTT9=
EXTT10=
PLAYORDER=
